<?xml version="1.0" standalone="no"?>
<!DOCTYPE svg PUBLIC "-//W3C//DTD SVG 20010904//EN"
 "http://www.w3.org/TR/2001/REC-SVG-20010904/DTD/svg10.dtd">
<svg version="1.0" xmlns="http://www.w3.org/2000/svg"
 width="330.000000pt" height="330.000000pt" viewBox="0 0 330.000000 330.000000"
 preserveAspectRatio="xMidYMid meet">

<g transform="translate(0.000000,330.000000) scale(0.100000,-0.100000)"
fill="#ffffff" stroke="none">
<path d="M1330 2815 l-455 -455 -328 0 -327 0 2 -707 3 -708 325 -3 325 -2
458 -458 457 -457 0 1623 c0 892 -1 1622 -3 1622 -1 0 -207 -205 -457 -455z
m180 -1167 l0 -943 -257 257 -258 258 -245 2 -245 3 -3 428 -2 427 242 0 243
0 255 255 c140 140 258 255 262 255 5 0 8 -424 8 -942z"/>
<path d="M2596 2522 l-99 -100 51 -61 c180 -216 273 -525 244 -814 -22 -228
-112 -447 -253 -618 l-38 -45 100 -100 c99 -98 100 -99 117 -78 194 241 281
419 338 694 22 105 25 369 5 480 -44 250 -171 519 -328 698 l-38 43 -99 -99z"/>
<path d="M2192 2117 c-50 -51 -92 -96 -92 -99 0 -4 16 -32 35 -62 121 -190
121 -412 -1 -609 l-37 -59 100 -100 100 -100 47 65 c107 150 159 315 158 502
0 139 -21 235 -77 354 -35 74 -119 201 -133 201 -4 0 -49 -42 -100 -93z"/>
</g>
</svg>
