<?xml version="1.0" standalone="no"?>
<!DOCTYPE svg PUBLIC "-//W3C//DTD SVG 20010904//EN"
 "http://www.w3.org/TR/2001/REC-SVG-20010904/DTD/svg10.dtd">
<svg version="1.0" xmlns="http://www.w3.org/2000/svg"
 width="225.000000pt" height="225.000000pt" viewBox="0 0 225.000000 225.000000"
 preserveAspectRatio="xMidYMid meet">

<g transform="translate(0.000000,225.000000) scale(0.100000,-0.100000)"
fill="#000000" stroke="none">
<path d="M1255 2026 c-142 -28 -256 -88 -354 -186 -130 -130 -194 -287 -192
-475 1 -140 36 -253 119 -378 l26 -38 -310 -310 -309 -309 50 -50 50 -50 311
311 312 312 33 -26 c53 -39 147 -84 219 -102 103 -27 256 -23 355 9 180 58
319 176 397 337 102 209 102 390 1 598 -36 77 -60 109 -122 172 -64 63 -95 85
-172 122 -52 25 -116 50 -142 56 -79 19 -196 22 -272 7z m233 -141 c283 -67
463 -354 397 -633 -23 -97 -70 -179 -146 -255 -329 -329 -893 -94 -893 373 0
339 315 592 642 515z"/>
</g>
</svg>
