<?xml version="1.0" standalone="no"?>
<!DOCTYPE svg PUBLIC "-//W3C//DTD SVG 20010904//EN"
 "http://www.w3.org/TR/2001/REC-SVG-20010904/DTD/svg10.dtd">
<svg version="1.0" xmlns="http://www.w3.org/2000/svg"
 width="250.000000pt" height="250.000000pt" viewBox="0 0 250.000000 250.000000"
 preserveAspectRatio="xMidYMid meet">

<g transform="translate(0.000000,250.000000) scale(0.100000,-0.100000)"
fill="#ffffff" stroke="none">
<path d="M1950 2204 c-329 -44 -626 -168 -908 -379 -296 -221 -556 -578 -667
-915 -10 -30 -27 -79 -37 -109 -10 -29 -17 -56 -14 -58 2 -2 -3 -25 -11 -51
-18 -61 -43 -258 -43 -344 l0 -68 120 0 120 0 0 58 c0 66 23 226 46 327 95
409 361 790 713 1023 238 158 442 236 722 277 59 8 132 15 163 15 l56 0 0 120
0 120 -82 -1 c-46 -1 -126 -7 -178 -15z"/>
<path d="M2045 1695 c-126 -17 -179 -29 -285 -65 -298 -102 -558 -300 -728
-554 -94 -141 -179 -335 -212 -481 -11 -50 -40 -263 -40 -297 0 -16 12 -18
123 -18 l124 0 7 98 c27 399 285 777 661 964 140 70 318 117 443 118 l72 0 0
125 0 125 -32 -1 c-18 -1 -78 -7 -133 -14z"/>
<path d="M2129 1186 c-2 -2 -29 -6 -60 -9 -30 -4 -96 -20 -145 -38 -276 -96
-476 -295 -572 -570 -32 -91 -37 -115 -48 -221 l-7 -68 120 0 120 0 11 80 c44
310 288 546 605 585 l57 7 0 119 0 119 -38 0 c-21 0 -41 -2 -43 -4z"/>
<path d="M1913 644 c-25 -14 -54 -44 -69 -70 -36 -61 -32 -149 10 -211 86
-129 298 -103 346 43 18 54 8 136 -22 181 -53 81 -180 108 -265 57z"/>
</g>
</svg>
